# Blender v3.4.1 OBJ File: ''
# www.blender.org
o Sphere
v -0.492109 0.538844 -0.387175
v -0.608656 0.308514 -0.544512
v -0.758501 -0.006124 -0.596833
v -0.608656 -0.320762 -0.544512
v -0.437988 -0.551093 -0.389835
v -0.274419 0.424949 -0.490142
v -0.285727 0.308514 -0.720195
v -0.289865 -0.006124 -0.804400
v -0.285727 -0.320762 -0.720195
v -0.274419 -0.551093 -0.490142
v 0.003197 0.369007 -0.411520
v 0.308314 0.364562 -0.658311
v 0.364408 -0.006124 -0.731387
v 0.308314 -0.376811 -0.658311
v -0.047681 -0.369289 -0.409020
v 0.106163 0.369007 -0.193830
v 0.490027 0.414840 -0.212698
v 0.800418 -0.006124 -0.227954
v 0.595916 -0.430824 -0.217903
v 0.055286 -0.369289 -0.191330
v -0.258973 0.587917 -0.175883
v 0.025041 0.369007 0.032908
v 0.352890 0.364562 0.248587
v 0.415880 -0.006124 0.315809
v 0.352890 -0.376811 0.248587
v -0.025836 -0.369289 0.035409
v -0.258973 -0.635400 -0.175883
v -0.243526 0.412504 0.138375
v -0.160994 0.207342 0.364927
v -0.101014 -0.089445 0.446388
v -0.232219 -0.320762 0.368428
v -0.243526 -0.551093 0.138375
v -0.470265 0.538844 0.057253
v -0.570820 0.308514 0.225261
v -0.714812 -0.006124 0.292024
v -0.570820 -0.320762 0.225261
v -0.470265 -0.551093 0.057253
v -0.573231 0.538844 -0.160437
v -0.836540 0.308514 -0.147495
v -0.920745 -0.006124 -0.143356
v -0.836540 -0.320762 -0.147495
v -0.606487 -0.551093 -0.158802
vt 0.092016 0.097929
vt 0.043872 0.362989
vt 0.037463 0.131109
vt 0.139255 0.799095
vt 0.058669 0.637922
vt 0.129100 0.556737
vt 0.145939 0.959407
vt 0.137373 0.971663
vt 0.079857 1.000000
vt 0.039696 0.001595
vt 0.114893 0.300092
vt 0.057010 0.861992
vt 0.000000 0.136898
vt 0.906499 0.362989
vt 0.841987 0.637497
vt 0.847183 0.369655
vt 0.919637 0.861992
vt 0.869180 0.910881
vt 0.845704 0.868658
vt 0.921296 0.637922
vt 0.006553 0.910881
vt 0.902323 0.001595
vt 0.862627 0.136898
vt 0.818165 0.242167
vt 0.728896 0.559581
vt 0.746296 0.255405
vt 0.771555 0.823305
vt 0.715269 0.843300
vt 1.000000 0.971663
vt 0.787473 0.185958
vt 0.654065 0.091300
vt 0.655552 0.767097
vt 0.605966 0.770879
vt 0.618420 0.410731
vt 0.492753 0.331489
vt 0.520762 0.057871
vt 0.482874 0.645767
vt 0.911390 0.145365
vt 0.430378 0.726504
vt 0.317804 0.545274
vt 0.048764 0.145365
vt 0.256654 0.132540
vt 0.145840 0.000000
vt 0.325283 0.286850
vt 0.270473 0.764114
vt 0.179814 0.195323
vt 0.127522 0.038899
vt 0.201065 0.444319
vt 0.211182 0.903198
vt 0.219261 0.694327
vn -0.5534 -0.8329 0.0056
vn -0.5651 -0.5270 -0.6348
vn -0.3607 -0.8439 -0.3971
vn -0.8453 0.5327 0.0415
vn -0.7254 0.0000 -0.6883
vn -0.9988 0.0000 0.0491
vn -0.5103 0.8596 0.0251
vn 0.2349 0.9720 -0.0039
vn -0.2953 0.8390 -0.4570
vn 0.2483 -0.9685 -0.0183
vn -0.8587 -0.5107 0.0422
vn -0.5326 0.5531 -0.6407
vn 0.1885 -0.8312 -0.5230
vn -0.1679 0.0000 -0.9858
vn -0.1117 -0.5421 -0.8329
vn 0.1321 0.8446 -0.5188
vn -0.1412 0.6135 -0.7770
vn 0.3070 -0.9280 -0.2108
vn 0.5091 0.0242 -0.8603
vn 0.3196 -0.7086 -0.6290
vn 0.1665 0.9651 -0.2022
vn 0.3964 0.6921 -0.6032
vn 0.2231 -0.9747 -0.0110
vn 0.6051 -0.7956 -0.0297
vn 0.1640 0.9864 -0.0081
vn 0.5201 0.8537 -0.0256
vn 0.9957 0.0787 -0.0489
vn 0.6025 0.0418 0.7970
vn 0.3945 -0.7187 0.5725
vn 0.4193 0.7004 0.5775
vn 0.3262 -0.9280 0.1797
vn 0.1636 0.9471 0.2761
vn -0.0160 0.5140 0.8576
vn -0.0544 -0.5624 0.8251
vn 0.2555 -0.8246 0.5048
vn 0.0257 -0.0334 0.9991
vn 0.1965 0.7740 0.6019
vn -0.5124 -0.5271 0.6779
vn -0.3715 -0.8150 0.4446
vn -0.6441 0.0125 0.7648
vn -0.2364 0.8382 0.4914
vn -0.4189 0.5497 0.7227
s 1
f 42/1/1 4/2/2 5/3/3
f 39/4/4 3/5/5 40/6/6
f 38/7/7 21/8/8 1/9/9
f 27/10/10 42/1/1 5/3/3
f 41/11/11 3/5/5 4/2/2
f 38/7/7 2/12/12 39/4/4
f 27/10/10 5/3/3 10/13/13
f 4/14/2 8/15/14 9/16/15
f 2/17/12 6/18/16 7/19/17
f 4/2/2 10/13/13 5/3/3
f 2/17/12 8/15/14 3/20/5
f 1/9/9 21/8/8 6/21/16
f 27/22/10 10/23/13 15/24/18
f 9/16/15 13/25/19 14/26/20
f 7/19/17 11/27/21 12/28/22
f 9/16/15 15/24/18 10/23/13
f 7/19/17 13/25/19 8/15/14
f 6/18/16 21/29/8 11/27/21
f 27/22/10 15/24/18 20/30/23
f 13/25/19 19/31/24 14/26/20
f 12/28/22 16/32/25 17/33/26
f 14/26/20 20/30/23 15/24/18
f 13/25/19 17/33/26 18/34/27
f 11/27/21 21/29/8 16/32/25
f 19/31/24 24/35/28 25/36/29
f 16/32/25 23/37/30 17/33/26
f 20/30/23 25/36/29 26/38/31
f 17/33/26 24/35/28 18/34/27
f 16/32/25 21/29/8 22/39/32
f 27/22/10 20/30/23 26/38/31
f 22/39/32 29/40/33 23/37/30
f 26/41/31 31/42/34 32/43/35
f 24/35/28 29/40/33 30/44/36
f 22/39/32 21/8/8 28/45/37
f 27/10/10 26/41/31 32/43/35
f 25/36/29 30/44/36 31/42/34
f 32/43/35 36/46/38 37/47/39
f 29/40/33 35/48/40 30/44/36
f 28/45/37 21/8/8 33/49/41
f 27/10/10 32/43/35 37/47/39
f 31/42/34 35/48/40 36/46/38
f 28/45/37 34/50/42 29/40/33
f 36/46/38 42/1/1 37/47/39
f 35/48/40 39/4/4 40/6/6
f 33/49/41 21/8/8 38/7/7
f 27/10/10 37/47/39 42/1/1
f 35/48/40 41/11/11 36/46/38
f 34/50/42 38/7/7 39/4/4
f 42/1/1 41/11/11 4/2/2
f 39/4/4 2/12/12 3/5/5
f 41/11/11 40/6/6 3/5/5
f 38/7/7 1/9/9 2/12/12
f 4/14/2 3/20/5 8/15/14
f 2/12/12 1/9/9 6/21/16
f 4/14/2 9/16/15 10/23/13
f 2/17/12 7/19/17 8/15/14
f 9/16/15 8/15/14 13/25/19
f 7/19/17 6/18/16 11/27/21
f 9/16/15 14/26/20 15/24/18
f 7/19/17 12/28/22 13/25/19
f 13/25/19 18/34/27 19/31/24
f 12/28/22 11/27/21 16/32/25
f 14/26/20 19/31/24 20/30/23
f 13/25/19 12/28/22 17/33/26
f 19/31/24 18/34/27 24/35/28
f 16/32/25 22/39/32 23/37/30
f 20/30/23 19/31/24 25/36/29
f 17/33/26 23/37/30 24/35/28
f 22/39/32 28/45/37 29/40/33
f 26/38/31 25/36/29 31/42/34
f 24/35/28 23/37/30 29/40/33
f 25/36/29 24/35/28 30/44/36
f 32/43/35 31/42/34 36/46/38
f 29/40/33 34/50/42 35/48/40
f 31/42/34 30/44/36 35/48/40
f 28/45/37 33/49/41 34/50/42
f 36/46/38 41/11/11 42/1/1
f 35/48/40 34/50/42 39/4/4
f 35/48/40 40/6/6 41/11/11
f 34/50/42 33/49/41 38/7/7
